<?xml version="1.0" encoding="utf-8"?>
<svg xmlns="http://www.w3.org/2000/svg" xmlns:xlink="http://www.w3.org/1999/xlink" width="600" height="400" viewBox="0 0 600 400">
<defs>
  <clipPath id="clip00">
    <rect x="0" y="0" width="600" height="400"/>
  </clipPath>
</defs>
<polygon clip-path="url(#clip00)" points="
0,400 600,400 600,0 0,0 
  " fill="#ffffff" fill-opacity="1"/>
<defs>
  <clipPath id="clip01">
    <rect x="120" y="0" width="421" height="400"/>
  </clipPath>
</defs>
<polygon clip-path="url(#clip00)" points="
47.9701,360.065 580.315,360.065 580.315,11.811 47.9701,11.811 
  " fill="#ffffff" fill-opacity="1"/>
<defs>
  <clipPath id="clip02">
    <rect x="47" y="11" width="533" height="349"/>
  </clipPath>
</defs>
<polyline clip-path="url(#clip02)" style="stroke:#000000; stroke-width:0.5; stroke-opacity:0.1; fill:none" points="
  63.0365,354.842 63.0365,17.0348 
  "/>
<polyline clip-path="url(#clip02)" style="stroke:#000000; stroke-width:0.5; stroke-opacity:0.1; fill:none" points="
  188.59,354.842 188.59,17.0348 
  "/>
<polyline clip-path="url(#clip02)" style="stroke:#000000; stroke-width:0.5; stroke-opacity:0.1; fill:none" points="
  314.143,354.842 314.143,17.0348 
  "/>
<polyline clip-path="url(#clip02)" style="stroke:#000000; stroke-width:0.5; stroke-opacity:0.1; fill:none" points="
  439.696,354.842 439.696,17.0348 
  "/>
<polyline clip-path="url(#clip02)" style="stroke:#000000; stroke-width:0.5; stroke-opacity:0.1; fill:none" points="
  565.249,354.842 565.249,17.0348 
  "/>
<polyline clip-path="url(#clip02)" style="stroke:#000000; stroke-width:0.5; stroke-opacity:0.1; fill:none" points="
  55.9553,358.017 572.33,358.017 
  "/>
<polyline clip-path="url(#clip02)" style="stroke:#000000; stroke-width:0.5; stroke-opacity:0.1; fill:none" points="
  55.9553,186.41 572.33,186.41 
  "/>
<polyline clip-path="url(#clip02)" style="stroke:#000000; stroke-width:0.5; stroke-opacity:0.1; fill:none" points="
  55.9553,14.803 572.33,14.803 
  "/>
<polyline clip-path="url(#clip00)" style="stroke:#000000; stroke-width:1; stroke-opacity:1; fill:none" points="
  47.9701,360.065 580.315,360.065 
  "/>
<polyline clip-path="url(#clip00)" style="stroke:#000000; stroke-width:1; stroke-opacity:1; fill:none" points="
  63.0365,360.065 63.0365,354.842 
  "/>
<polyline clip-path="url(#clip00)" style="stroke:#000000; stroke-width:1; stroke-opacity:1; fill:none" points="
  188.59,360.065 188.59,354.842 
  "/>
<polyline clip-path="url(#clip00)" style="stroke:#000000; stroke-width:1; stroke-opacity:1; fill:none" points="
  314.143,360.065 314.143,354.842 
  "/>
<polyline clip-path="url(#clip00)" style="stroke:#000000; stroke-width:1; stroke-opacity:1; fill:none" points="
  439.696,360.065 439.696,354.842 
  "/>
<polyline clip-path="url(#clip00)" style="stroke:#000000; stroke-width:1; stroke-opacity:1; fill:none" points="
  565.249,360.065 565.249,354.842 
  "/>
<polyline clip-path="url(#clip00)" style="stroke:#000000; stroke-width:1; stroke-opacity:1; fill:none" points="
  47.9701,360.065 47.9701,11.811 
  "/>
<polyline clip-path="url(#clip00)" style="stroke:#000000; stroke-width:1; stroke-opacity:1; fill:none" points="
  47.9701,358.017 55.9553,358.017 
  "/>
<polyline clip-path="url(#clip00)" style="stroke:#000000; stroke-width:1; stroke-opacity:1; fill:none" points="
  47.9701,186.41 55.9553,186.41 
  "/>
<polyline clip-path="url(#clip00)" style="stroke:#000000; stroke-width:1; stroke-opacity:1; fill:none" points="
  47.9701,14.803 55.9553,14.803 
  "/>
<g clip-path="url(#clip00)">
<text style="fill:#000000; fill-opacity:1; font-family:Arial,Helvetica Neue,Helvetica,sans-serif; font-size:12; text-anchor:middle;" transform="rotate(0, 63.0365, 373.865)" x="63.0365" y="373.865">-2</text>
</g>
<g clip-path="url(#clip00)">
<text style="fill:#000000; fill-opacity:1; font-family:Arial,Helvetica Neue,Helvetica,sans-serif; font-size:12; text-anchor:middle;" transform="rotate(0, 188.59, 373.865)" x="188.59" y="373.865">-1</text>
</g>
<g clip-path="url(#clip00)">
<text style="fill:#000000; fill-opacity:1; font-family:Arial,Helvetica Neue,Helvetica,sans-serif; font-size:12; text-anchor:middle;" transform="rotate(0, 314.143, 373.865)" x="314.143" y="373.865">0</text>
</g>
<g clip-path="url(#clip00)">
<text style="fill:#000000; fill-opacity:1; font-family:Arial,Helvetica Neue,Helvetica,sans-serif; font-size:12; text-anchor:middle;" transform="rotate(0, 439.696, 373.865)" x="439.696" y="373.865">1</text>
</g>
<g clip-path="url(#clip00)">
<text style="fill:#000000; fill-opacity:1; font-family:Arial,Helvetica Neue,Helvetica,sans-serif; font-size:12; text-anchor:middle;" transform="rotate(0, 565.249, 373.865)" x="565.249" y="373.865">2</text>
</g>
<g clip-path="url(#clip00)">
<text style="fill:#000000; fill-opacity:1; font-family:Arial,Helvetica Neue,Helvetica,sans-serif; font-size:12; text-anchor:end;" transform="rotate(0, 41.9701, 362.517)" x="41.9701" y="362.517">0.0</text>
</g>
<g clip-path="url(#clip00)">
<text style="fill:#000000; fill-opacity:1; font-family:Arial,Helvetica Neue,Helvetica,sans-serif; font-size:12; text-anchor:end;" transform="rotate(0, 41.9701, 190.91)" x="41.9701" y="190.91">0.5</text>
</g>
<g clip-path="url(#clip00)">
<text style="fill:#000000; fill-opacity:1; font-family:Arial,Helvetica Neue,Helvetica,sans-serif; font-size:12; text-anchor:end;" transform="rotate(0, 41.9701, 19.303)" x="41.9701" y="19.303">1.0</text>
</g>
<g clip-path="url(#clip00)">
<text style="fill:#000000; fill-opacity:1; font-family:Symbol; font-size:18; text-anchor:start;" transform="rotate(0, 309.503, 396.08)" x="309.503" y="396.08">θ</text>
</g>
<g clip-path="url(#clip00)">
<text style="fill:#000000; fill-opacity:1; font-family:Arial,Helvetica Neue,Helvetica,sans-serif; font-size:16; text-anchor:middle;" transform="rotate(-90, 14.4, 185.938)" x="14.4" y="185.938">integral</text>
</g>
<circle clip-path="url(#clip02)" style="fill:#000000; stroke:none; fill-opacity:1" cx="63.0365" cy="350.209" r="4"/>
<circle clip-path="url(#clip02)" style="fill:#009af9; stroke:none; fill-opacity:1" cx="63.0365" cy="350.209" r="3"/>
<circle clip-path="url(#clip02)" style="fill:#000000; stroke:none; fill-opacity:1" cx="73.0807" cy="348.603" r="4"/>
<circle clip-path="url(#clip02)" style="fill:#009af9; stroke:none; fill-opacity:1" cx="73.0807" cy="348.603" r="3"/>
<circle clip-path="url(#clip02)" style="fill:#000000; stroke:none; fill-opacity:1" cx="83.125" cy="346.731" r="4"/>
<circle clip-path="url(#clip02)" style="fill:#009af9; stroke:none; fill-opacity:1" cx="83.125" cy="346.731" r="3"/>
<circle clip-path="url(#clip02)" style="fill:#000000; stroke:none; fill-opacity:1" cx="93.1692" cy="344.562" r="4"/>
<circle clip-path="url(#clip02)" style="fill:#009af9; stroke:none; fill-opacity:1" cx="93.1692" cy="344.562" r="3"/>
<circle clip-path="url(#clip02)" style="fill:#000000; stroke:none; fill-opacity:1" cx="103.213" cy="342.065" r="4"/>
<circle clip-path="url(#clip02)" style="fill:#009af9; stroke:none; fill-opacity:1" cx="103.213" cy="342.065" r="3"/>
<circle clip-path="url(#clip02)" style="fill:#000000; stroke:none; fill-opacity:1" cx="113.258" cy="339.209" r="4"/>
<circle clip-path="url(#clip02)" style="fill:#009af9; stroke:none; fill-opacity:1" cx="113.258" cy="339.209" r="3"/>
<circle clip-path="url(#clip02)" style="fill:#000000; stroke:none; fill-opacity:1" cx="123.302" cy="335.964" r="4"/>
<circle clip-path="url(#clip02)" style="fill:#009af9; stroke:none; fill-opacity:1" cx="123.302" cy="335.964" r="3"/>
<circle clip-path="url(#clip02)" style="fill:#000000; stroke:none; fill-opacity:1" cx="133.346" cy="332.299" r="4"/>
<circle clip-path="url(#clip02)" style="fill:#009af9; stroke:none; fill-opacity:1" cx="133.346" cy="332.299" r="3"/>
<circle clip-path="url(#clip02)" style="fill:#000000; stroke:none; fill-opacity:1" cx="143.39" cy="328.187" r="4"/>
<circle clip-path="url(#clip02)" style="fill:#009af9; stroke:none; fill-opacity:1" cx="143.39" cy="328.187" r="3"/>
<circle clip-path="url(#clip02)" style="fill:#000000; stroke:none; fill-opacity:1" cx="153.435" cy="323.602" r="4"/>
<circle clip-path="url(#clip02)" style="fill:#009af9; stroke:none; fill-opacity:1" cx="153.435" cy="323.602" r="3"/>
<circle clip-path="url(#clip02)" style="fill:#000000; stroke:none; fill-opacity:1" cx="163.479" cy="318.524" r="4"/>
<circle clip-path="url(#clip02)" style="fill:#009af9; stroke:none; fill-opacity:1" cx="163.479" cy="318.524" r="3"/>
<circle clip-path="url(#clip02)" style="fill:#000000; stroke:none; fill-opacity:1" cx="173.523" cy="312.934" r="4"/>
<circle clip-path="url(#clip02)" style="fill:#009af9; stroke:none; fill-opacity:1" cx="173.523" cy="312.934" r="3"/>
<circle clip-path="url(#clip02)" style="fill:#000000; stroke:none; fill-opacity:1" cx="183.567" cy="306.82" r="4"/>
<circle clip-path="url(#clip02)" style="fill:#009af9; stroke:none; fill-opacity:1" cx="183.567" cy="306.82" r="3"/>
<circle clip-path="url(#clip02)" style="fill:#000000; stroke:none; fill-opacity:1" cx="193.612" cy="300.176" r="4"/>
<circle clip-path="url(#clip02)" style="fill:#009af9; stroke:none; fill-opacity:1" cx="193.612" cy="300.176" r="3"/>
<circle clip-path="url(#clip02)" style="fill:#000000; stroke:none; fill-opacity:1" cx="203.656" cy="293.002" r="4"/>
<circle clip-path="url(#clip02)" style="fill:#009af9; stroke:none; fill-opacity:1" cx="203.656" cy="293.002" r="3"/>
<circle clip-path="url(#clip02)" style="fill:#000000; stroke:none; fill-opacity:1" cx="213.7" cy="285.306" r="4"/>
<circle clip-path="url(#clip02)" style="fill:#009af9; stroke:none; fill-opacity:1" cx="213.7" cy="285.306" r="3"/>
<circle clip-path="url(#clip02)" style="fill:#000000; stroke:none; fill-opacity:1" cx="223.744" cy="277.1" r="4"/>
<circle clip-path="url(#clip02)" style="fill:#009af9; stroke:none; fill-opacity:1" cx="223.744" cy="277.1" r="3"/>
<circle clip-path="url(#clip02)" style="fill:#000000; stroke:none; fill-opacity:1" cx="233.789" cy="268.409" r="4"/>
<circle clip-path="url(#clip02)" style="fill:#009af9; stroke:none; fill-opacity:1" cx="233.789" cy="268.409" r="3"/>
<circle clip-path="url(#clip02)" style="fill:#000000; stroke:none; fill-opacity:1" cx="243.833" cy="259.261" r="4"/>
<circle clip-path="url(#clip02)" style="fill:#009af9; stroke:none; fill-opacity:1" cx="243.833" cy="259.261" r="3"/>
<circle clip-path="url(#clip02)" style="fill:#000000; stroke:none; fill-opacity:1" cx="253.877" cy="249.694" r="4"/>
<circle clip-path="url(#clip02)" style="fill:#009af9; stroke:none; fill-opacity:1" cx="253.877" cy="249.694" r="3"/>
<circle clip-path="url(#clip02)" style="fill:#000000; stroke:none; fill-opacity:1" cx="263.921" cy="239.753" r="4"/>
<circle clip-path="url(#clip02)" style="fill:#009af9; stroke:none; fill-opacity:1" cx="263.921" cy="239.753" r="3"/>
<circle clip-path="url(#clip02)" style="fill:#000000; stroke:none; fill-opacity:1" cx="273.966" cy="229.489" r="4"/>
<circle clip-path="url(#clip02)" style="fill:#009af9; stroke:none; fill-opacity:1" cx="273.966" cy="229.489" r="3"/>
<circle clip-path="url(#clip02)" style="fill:#000000; stroke:none; fill-opacity:1" cx="284.01" cy="218.959" r="4"/>
<circle clip-path="url(#clip02)" style="fill:#009af9; stroke:none; fill-opacity:1" cx="284.01" cy="218.959" r="3"/>
<circle clip-path="url(#clip02)" style="fill:#000000; stroke:none; fill-opacity:1" cx="294.054" cy="208.225" r="4"/>
<circle clip-path="url(#clip02)" style="fill:#009af9; stroke:none; fill-opacity:1" cx="294.054" cy="208.225" r="3"/>
<circle clip-path="url(#clip02)" style="fill:#000000; stroke:none; fill-opacity:1" cx="304.098" cy="197.352" r="4"/>
<circle clip-path="url(#clip02)" style="fill:#009af9; stroke:none; fill-opacity:1" cx="304.098" cy="197.352" r="3"/>
<circle clip-path="url(#clip02)" style="fill:#000000; stroke:none; fill-opacity:1" cx="314.143" cy="186.41" r="4"/>
<circle clip-path="url(#clip02)" style="fill:#009af9; stroke:none; fill-opacity:1" cx="314.143" cy="186.41" r="3"/>
<circle clip-path="url(#clip02)" style="fill:#000000; stroke:none; fill-opacity:1" cx="324.187" cy="175.468" r="4"/>
<circle clip-path="url(#clip02)" style="fill:#009af9; stroke:none; fill-opacity:1" cx="324.187" cy="175.468" r="3"/>
<circle clip-path="url(#clip02)" style="fill:#000000; stroke:none; fill-opacity:1" cx="334.231" cy="164.596" r="4"/>
<circle clip-path="url(#clip02)" style="fill:#009af9; stroke:none; fill-opacity:1" cx="334.231" cy="164.596" r="3"/>
<circle clip-path="url(#clip02)" style="fill:#000000; stroke:none; fill-opacity:1" cx="344.275" cy="153.861" r="4"/>
<circle clip-path="url(#clip02)" style="fill:#009af9; stroke:none; fill-opacity:1" cx="344.275" cy="153.861" r="3"/>
<circle clip-path="url(#clip02)" style="fill:#000000; stroke:none; fill-opacity:1" cx="354.32" cy="143.331" r="4"/>
<circle clip-path="url(#clip02)" style="fill:#009af9; stroke:none; fill-opacity:1" cx="354.32" cy="143.331" r="3"/>
<circle clip-path="url(#clip02)" style="fill:#000000; stroke:none; fill-opacity:1" cx="364.364" cy="133.067" r="4"/>
<circle clip-path="url(#clip02)" style="fill:#009af9; stroke:none; fill-opacity:1" cx="364.364" cy="133.067" r="3"/>
<circle clip-path="url(#clip02)" style="fill:#000000; stroke:none; fill-opacity:1" cx="374.408" cy="123.126" r="4"/>
<circle clip-path="url(#clip02)" style="fill:#009af9; stroke:none; fill-opacity:1" cx="374.408" cy="123.126" r="3"/>
<circle clip-path="url(#clip02)" style="fill:#000000; stroke:none; fill-opacity:1" cx="384.452" cy="113.559" r="4"/>
<circle clip-path="url(#clip02)" style="fill:#009af9; stroke:none; fill-opacity:1" cx="384.452" cy="113.559" r="3"/>
<circle clip-path="url(#clip02)" style="fill:#000000; stroke:none; fill-opacity:1" cx="394.496" cy="104.412" r="4"/>
<circle clip-path="url(#clip02)" style="fill:#009af9; stroke:none; fill-opacity:1" cx="394.496" cy="104.412" r="3"/>
<circle clip-path="url(#clip02)" style="fill:#000000; stroke:none; fill-opacity:1" cx="404.541" cy="95.7201" r="4"/>
<circle clip-path="url(#clip02)" style="fill:#009af9; stroke:none; fill-opacity:1" cx="404.541" cy="95.7201" r="3"/>
<circle clip-path="url(#clip02)" style="fill:#000000; stroke:none; fill-opacity:1" cx="414.585" cy="87.5148" r="4"/>
<circle clip-path="url(#clip02)" style="fill:#009af9; stroke:none; fill-opacity:1" cx="414.585" cy="87.5148" r="3"/>
<circle clip-path="url(#clip02)" style="fill:#000000; stroke:none; fill-opacity:1" cx="424.629" cy="79.818" r="4"/>
<circle clip-path="url(#clip02)" style="fill:#009af9; stroke:none; fill-opacity:1" cx="424.629" cy="79.818" r="3"/>
<circle clip-path="url(#clip02)" style="fill:#000000; stroke:none; fill-opacity:1" cx="434.673" cy="72.6441" r="4"/>
<circle clip-path="url(#clip02)" style="fill:#009af9; stroke:none; fill-opacity:1" cx="434.673" cy="72.6441" r="3"/>
<circle clip-path="url(#clip02)" style="fill:#000000; stroke:none; fill-opacity:1" cx="444.718" cy="66.0003" r="4"/>
<circle clip-path="url(#clip02)" style="fill:#009af9; stroke:none; fill-opacity:1" cx="444.718" cy="66.0003" r="3"/>
<circle clip-path="url(#clip02)" style="fill:#000000; stroke:none; fill-opacity:1" cx="454.762" cy="59.8866" r="4"/>
<circle clip-path="url(#clip02)" style="fill:#009af9; stroke:none; fill-opacity:1" cx="454.762" cy="59.8866" r="3"/>
<circle clip-path="url(#clip02)" style="fill:#000000; stroke:none; fill-opacity:1" cx="464.806" cy="54.2966" r="4"/>
<circle clip-path="url(#clip02)" style="fill:#009af9; stroke:none; fill-opacity:1" cx="464.806" cy="54.2966" r="3"/>
<circle clip-path="url(#clip02)" style="fill:#000000; stroke:none; fill-opacity:1" cx="474.85" cy="49.218" r="4"/>
<circle clip-path="url(#clip02)" style="fill:#009af9; stroke:none; fill-opacity:1" cx="474.85" cy="49.218" r="3"/>
<circle clip-path="url(#clip02)" style="fill:#000000; stroke:none; fill-opacity:1" cx="484.895" cy="44.6335" r="4"/>
<circle clip-path="url(#clip02)" style="fill:#009af9; stroke:none; fill-opacity:1" cx="484.895" cy="44.6335" r="3"/>
<circle clip-path="url(#clip02)" style="fill:#000000; stroke:none; fill-opacity:1" cx="494.939" cy="40.5213" r="4"/>
<circle clip-path="url(#clip02)" style="fill:#009af9; stroke:none; fill-opacity:1" cx="494.939" cy="40.5213" r="3"/>
<circle clip-path="url(#clip02)" style="fill:#000000; stroke:none; fill-opacity:1" cx="504.983" cy="36.8564" r="4"/>
<circle clip-path="url(#clip02)" style="fill:#009af9; stroke:none; fill-opacity:1" cx="504.983" cy="36.8564" r="3"/>
<circle clip-path="url(#clip02)" style="fill:#000000; stroke:none; fill-opacity:1" cx="515.027" cy="33.6109" r="4"/>
<circle clip-path="url(#clip02)" style="fill:#009af9; stroke:none; fill-opacity:1" cx="515.027" cy="33.6109" r="3"/>
<circle clip-path="url(#clip02)" style="fill:#000000; stroke:none; fill-opacity:1" cx="525.072" cy="30.7551" r="4"/>
<circle clip-path="url(#clip02)" style="fill:#009af9; stroke:none; fill-opacity:1" cx="525.072" cy="30.7551" r="3"/>
<circle clip-path="url(#clip02)" style="fill:#000000; stroke:none; fill-opacity:1" cx="535.116" cy="28.2583" r="4"/>
<circle clip-path="url(#clip02)" style="fill:#009af9; stroke:none; fill-opacity:1" cx="535.116" cy="28.2583" r="3"/>
<circle clip-path="url(#clip02)" style="fill:#000000; stroke:none; fill-opacity:1" cx="545.16" cy="26.0893" r="4"/>
<circle clip-path="url(#clip02)" style="fill:#009af9; stroke:none; fill-opacity:1" cx="545.16" cy="26.0893" r="3"/>
<circle clip-path="url(#clip02)" style="fill:#000000; stroke:none; fill-opacity:1" cx="555.204" cy="24.217" r="4"/>
<circle clip-path="url(#clip02)" style="fill:#009af9; stroke:none; fill-opacity:1" cx="555.204" cy="24.217" r="3"/>
<circle clip-path="url(#clip02)" style="fill:#000000; stroke:none; fill-opacity:1" cx="565.249" cy="22.6112" r="4"/>
<circle clip-path="url(#clip02)" style="fill:#009af9; stroke:none; fill-opacity:1" cx="565.249" cy="22.6112" r="3"/>
<circle clip-path="url(#clip02)" style="fill:#000000; stroke:none; fill-opacity:1" cx="63.0365" cy="348.064" r="4"/>
<circle clip-path="url(#clip02)" style="fill:#e26f46; stroke:none; fill-opacity:1" cx="63.0365" cy="348.064" r="3"/>
<circle clip-path="url(#clip02)" style="fill:#000000; stroke:none; fill-opacity:1" cx="73.0807" cy="347.378" r="4"/>
<circle clip-path="url(#clip02)" style="fill:#e26f46; stroke:none; fill-opacity:1" cx="73.0807" cy="347.378" r="3"/>
<circle clip-path="url(#clip02)" style="fill:#000000; stroke:none; fill-opacity:1" cx="83.125" cy="343.259" r="4"/>
<circle clip-path="url(#clip02)" style="fill:#e26f46; stroke:none; fill-opacity:1" cx="83.125" cy="343.259" r="3"/>
<circle clip-path="url(#clip02)" style="fill:#000000; stroke:none; fill-opacity:1" cx="93.1692" cy="338.797" r="4"/>
<circle clip-path="url(#clip02)" style="fill:#e26f46; stroke:none; fill-opacity:1" cx="93.1692" cy="338.797" r="3"/>
<circle clip-path="url(#clip02)" style="fill:#000000; stroke:none; fill-opacity:1" cx="103.213" cy="337.424" r="4"/>
<circle clip-path="url(#clip02)" style="fill:#e26f46; stroke:none; fill-opacity:1" cx="103.213" cy="337.424" r="3"/>
<circle clip-path="url(#clip02)" style="fill:#000000; stroke:none; fill-opacity:1" cx="113.258" cy="340.513" r="4"/>
<circle clip-path="url(#clip02)" style="fill:#e26f46; stroke:none; fill-opacity:1" cx="113.258" cy="340.513" r="3"/>
<circle clip-path="url(#clip02)" style="fill:#000000; stroke:none; fill-opacity:1" cx="123.302" cy="334.679" r="4"/>
<circle clip-path="url(#clip02)" style="fill:#e26f46; stroke:none; fill-opacity:1" cx="123.302" cy="334.679" r="3"/>
<circle clip-path="url(#clip02)" style="fill:#000000; stroke:none; fill-opacity:1" cx="133.346" cy="336.738" r="4"/>
<circle clip-path="url(#clip02)" style="fill:#e26f46; stroke:none; fill-opacity:1" cx="133.346" cy="336.738" r="3"/>
<circle clip-path="url(#clip02)" style="fill:#000000; stroke:none; fill-opacity:1" cx="143.39" cy="326.442" r="4"/>
<circle clip-path="url(#clip02)" style="fill:#e26f46; stroke:none; fill-opacity:1" cx="143.39" cy="326.442" r="3"/>
<circle clip-path="url(#clip02)" style="fill:#000000; stroke:none; fill-opacity:1" cx="153.435" cy="323.009" r="4"/>
<circle clip-path="url(#clip02)" style="fill:#e26f46; stroke:none; fill-opacity:1" cx="153.435" cy="323.009" r="3"/>
<circle clip-path="url(#clip02)" style="fill:#000000; stroke:none; fill-opacity:1" cx="163.479" cy="322.323" r="4"/>
<circle clip-path="url(#clip02)" style="fill:#e26f46; stroke:none; fill-opacity:1" cx="163.479" cy="322.323" r="3"/>
<circle clip-path="url(#clip02)" style="fill:#000000; stroke:none; fill-opacity:1" cx="173.523" cy="312.027" r="4"/>
<circle clip-path="url(#clip02)" style="fill:#e26f46; stroke:none; fill-opacity:1" cx="173.523" cy="312.027" r="3"/>
<circle clip-path="url(#clip02)" style="fill:#000000; stroke:none; fill-opacity:1" cx="183.567" cy="303.103" r="4"/>
<circle clip-path="url(#clip02)" style="fill:#e26f46; stroke:none; fill-opacity:1" cx="183.567" cy="303.103" r="3"/>
<circle clip-path="url(#clip02)" style="fill:#000000; stroke:none; fill-opacity:1" cx="193.612" cy="298.984" r="4"/>
<circle clip-path="url(#clip02)" style="fill:#e26f46; stroke:none; fill-opacity:1" cx="193.612" cy="298.984" r="3"/>
<circle clip-path="url(#clip02)" style="fill:#000000; stroke:none; fill-opacity:1" cx="203.656" cy="290.061" r="4"/>
<circle clip-path="url(#clip02)" style="fill:#e26f46; stroke:none; fill-opacity:1" cx="203.656" cy="290.061" r="3"/>
<circle clip-path="url(#clip02)" style="fill:#000000; stroke:none; fill-opacity:1" cx="213.7" cy="281.137" r="4"/>
<circle clip-path="url(#clip02)" style="fill:#e26f46; stroke:none; fill-opacity:1" cx="213.7" cy="281.137" r="3"/>
<circle clip-path="url(#clip02)" style="fill:#000000; stroke:none; fill-opacity:1" cx="223.744" cy="277.019" r="4"/>
<circle clip-path="url(#clip02)" style="fill:#e26f46; stroke:none; fill-opacity:1" cx="223.744" cy="277.019" r="3"/>
<circle clip-path="url(#clip02)" style="fill:#000000; stroke:none; fill-opacity:1" cx="233.789" cy="269.811" r="4"/>
<circle clip-path="url(#clip02)" style="fill:#e26f46; stroke:none; fill-opacity:1" cx="233.789" cy="269.811" r="3"/>
<circle clip-path="url(#clip02)" style="fill:#000000; stroke:none; fill-opacity:1" cx="243.833" cy="268.782" r="4"/>
<circle clip-path="url(#clip02)" style="fill:#e26f46; stroke:none; fill-opacity:1" cx="243.833" cy="268.782" r="3"/>
<circle clip-path="url(#clip02)" style="fill:#000000; stroke:none; fill-opacity:1" cx="253.877" cy="260.201" r="4"/>
<circle clip-path="url(#clip02)" style="fill:#e26f46; stroke:none; fill-opacity:1" cx="253.877" cy="260.201" r="3"/>
<circle clip-path="url(#clip02)" style="fill:#000000; stroke:none; fill-opacity:1" cx="263.921" cy="238.922" r="4"/>
<circle clip-path="url(#clip02)" style="fill:#e26f46; stroke:none; fill-opacity:1" cx="263.921" cy="238.922" r="3"/>
<circle clip-path="url(#clip02)" style="fill:#000000; stroke:none; fill-opacity:1" cx="273.966" cy="239.608" r="4"/>
<circle clip-path="url(#clip02)" style="fill:#e26f46; stroke:none; fill-opacity:1" cx="273.966" cy="239.608" r="3"/>
<circle clip-path="url(#clip02)" style="fill:#000000; stroke:none; fill-opacity:1" cx="284.01" cy="220.388" r="4"/>
<circle clip-path="url(#clip02)" style="fill:#e26f46; stroke:none; fill-opacity:1" cx="284.01" cy="220.388" r="3"/>
<circle clip-path="url(#clip02)" style="fill:#000000; stroke:none; fill-opacity:1" cx="294.054" cy="211.122" r="4"/>
<circle clip-path="url(#clip02)" style="fill:#e26f46; stroke:none; fill-opacity:1" cx="294.054" cy="211.122" r="3"/>
<circle clip-path="url(#clip02)" style="fill:#000000; stroke:none; fill-opacity:1" cx="304.098" cy="190.872" r="4"/>
<circle clip-path="url(#clip02)" style="fill:#e26f46; stroke:none; fill-opacity:1" cx="304.098" cy="190.872" r="3"/>
<circle clip-path="url(#clip02)" style="fill:#000000; stroke:none; fill-opacity:1" cx="314.143" cy="188.813" r="4"/>
<circle clip-path="url(#clip02)" style="fill:#e26f46; stroke:none; fill-opacity:1" cx="314.143" cy="188.813" r="3"/>
<circle clip-path="url(#clip02)" style="fill:#000000; stroke:none; fill-opacity:1" cx="324.187" cy="178.173" r="4"/>
<circle clip-path="url(#clip02)" style="fill:#e26f46; stroke:none; fill-opacity:1" cx="324.187" cy="178.173" r="3"/>
<circle clip-path="url(#clip02)" style="fill:#000000; stroke:none; fill-opacity:1" cx="334.231" cy="162.385" r="4"/>
<circle clip-path="url(#clip02)" style="fill:#e26f46; stroke:none; fill-opacity:1" cx="334.231" cy="162.385" r="3"/>
<circle clip-path="url(#clip02)" style="fill:#000000; stroke:none; fill-opacity:1" cx="344.275" cy="146.597" r="4"/>
<circle clip-path="url(#clip02)" style="fill:#e26f46; stroke:none; fill-opacity:1" cx="344.275" cy="146.597" r="3"/>
<circle clip-path="url(#clip02)" style="fill:#000000; stroke:none; fill-opacity:1" cx="354.32" cy="150.716" r="4"/>
<circle clip-path="url(#clip02)" style="fill:#e26f46; stroke:none; fill-opacity:1" cx="354.32" cy="150.716" r="3"/>
<circle clip-path="url(#clip02)" style="fill:#000000; stroke:none; fill-opacity:1" cx="364.364" cy="122.229" r="4"/>
<circle clip-path="url(#clip02)" style="fill:#e26f46; stroke:none; fill-opacity:1" cx="364.364" cy="122.229" r="3"/>
<circle clip-path="url(#clip02)" style="fill:#000000; stroke:none; fill-opacity:1" cx="374.408" cy="122.572" r="4"/>
<circle clip-path="url(#clip02)" style="fill:#e26f46; stroke:none; fill-opacity:1" cx="374.408" cy="122.572" r="3"/>
<circle clip-path="url(#clip02)" style="fill:#000000; stroke:none; fill-opacity:1" cx="384.452" cy="108.501" r="4"/>
<circle clip-path="url(#clip02)" style="fill:#e26f46; stroke:none; fill-opacity:1" cx="384.452" cy="108.501" r="3"/>
<circle clip-path="url(#clip02)" style="fill:#000000; stroke:none; fill-opacity:1" cx="394.496" cy="104.382" r="4"/>
<circle clip-path="url(#clip02)" style="fill:#e26f46; stroke:none; fill-opacity:1" cx="394.496" cy="104.382" r="3"/>
<circle clip-path="url(#clip02)" style="fill:#000000; stroke:none; fill-opacity:1" cx="404.541" cy="99.5769" r="4"/>
<circle clip-path="url(#clip02)" style="fill:#e26f46; stroke:none; fill-opacity:1" cx="404.541" cy="99.5769" r="3"/>
<circle clip-path="url(#clip02)" style="fill:#000000; stroke:none; fill-opacity:1" cx="414.585" cy="87.9076" r="4"/>
<circle clip-path="url(#clip02)" style="fill:#e26f46; stroke:none; fill-opacity:1" cx="414.585" cy="87.9076" r="3"/>
<circle clip-path="url(#clip02)" style="fill:#000000; stroke:none; fill-opacity:1" cx="424.629" cy="81.3866" r="4"/>
<circle clip-path="url(#clip02)" style="fill:#e26f46; stroke:none; fill-opacity:1" cx="424.629" cy="81.3866" r="3"/>
<circle clip-path="url(#clip02)" style="fill:#000000; stroke:none; fill-opacity:1" cx="434.673" cy="78.2976" r="4"/>
<circle clip-path="url(#clip02)" style="fill:#e26f46; stroke:none; fill-opacity:1" cx="434.673" cy="78.2976" r="3"/>
<circle clip-path="url(#clip02)" style="fill:#000000; stroke:none; fill-opacity:1" cx="444.718" cy="69.7173" r="4"/>
<circle clip-path="url(#clip02)" style="fill:#e26f46; stroke:none; fill-opacity:1" cx="444.718" cy="69.7173" r="3"/>
<circle clip-path="url(#clip02)" style="fill:#000000; stroke:none; fill-opacity:1" cx="454.762" cy="63.1962" r="4"/>
<circle clip-path="url(#clip02)" style="fill:#e26f46; stroke:none; fill-opacity:1" cx="454.762" cy="63.1962" r="3"/>
<circle clip-path="url(#clip02)" style="fill:#000000; stroke:none; fill-opacity:1" cx="464.806" cy="59.7641" r="4"/>
<circle clip-path="url(#clip02)" style="fill:#e26f46; stroke:none; fill-opacity:1" cx="464.806" cy="59.7641" r="3"/>
<circle clip-path="url(#clip02)" style="fill:#000000; stroke:none; fill-opacity:1" cx="474.85" cy="50.8405" r="4"/>
<circle clip-path="url(#clip02)" style="fill:#e26f46; stroke:none; fill-opacity:1" cx="474.85" cy="50.8405" r="3"/>
<circle clip-path="url(#clip02)" style="fill:#000000; stroke:none; fill-opacity:1" cx="484.895" cy="44.3194" r="4"/>
<circle clip-path="url(#clip02)" style="fill:#e26f46; stroke:none; fill-opacity:1" cx="484.895" cy="44.3194" r="3"/>
<circle clip-path="url(#clip02)" style="fill:#000000; stroke:none; fill-opacity:1" cx="494.939" cy="41.5737" r="4"/>
<circle clip-path="url(#clip02)" style="fill:#e26f46; stroke:none; fill-opacity:1" cx="494.939" cy="41.5737" r="3"/>
<circle clip-path="url(#clip02)" style="fill:#000000; stroke:none; fill-opacity:1" cx="504.983" cy="40.5441" r="4"/>
<circle clip-path="url(#clip02)" style="fill:#e26f46; stroke:none; fill-opacity:1" cx="504.983" cy="40.5441" r="3"/>
<circle clip-path="url(#clip02)" style="fill:#000000; stroke:none; fill-opacity:1" cx="515.027" cy="31.6205" r="4"/>
<circle clip-path="url(#clip02)" style="fill:#e26f46; stroke:none; fill-opacity:1" cx="515.027" cy="31.6205" r="3"/>
<circle clip-path="url(#clip02)" style="fill:#000000; stroke:none; fill-opacity:1" cx="525.072" cy="30.5909" r="4"/>
<circle clip-path="url(#clip02)" style="fill:#e26f46; stroke:none; fill-opacity:1" cx="525.072" cy="30.5909" r="3"/>
<circle clip-path="url(#clip02)" style="fill:#000000; stroke:none; fill-opacity:1" cx="535.116" cy="26.4723" r="4"/>
<circle clip-path="url(#clip02)" style="fill:#e26f46; stroke:none; fill-opacity:1" cx="535.116" cy="26.4723" r="3"/>
<circle clip-path="url(#clip02)" style="fill:#000000; stroke:none; fill-opacity:1" cx="545.16" cy="26.1291" r="4"/>
<circle clip-path="url(#clip02)" style="fill:#e26f46; stroke:none; fill-opacity:1" cx="545.16" cy="26.1291" r="3"/>
<circle clip-path="url(#clip02)" style="fill:#000000; stroke:none; fill-opacity:1" cx="555.204" cy="24.7562" r="4"/>
<circle clip-path="url(#clip02)" style="fill:#e26f46; stroke:none; fill-opacity:1" cx="555.204" cy="24.7562" r="3"/>
<circle clip-path="url(#clip02)" style="fill:#000000; stroke:none; fill-opacity:1" cx="565.249" cy="21.6673" r="4"/>
<circle clip-path="url(#clip02)" style="fill:#e26f46; stroke:none; fill-opacity:1" cx="565.249" cy="21.6673" r="3"/>
<polygon clip-path="url(#clip00)" points="
65.9701,78.051 200.4,78.051 200.4,32.691 65.9701,32.691 
  " fill="#ffffff" fill-opacity="1"/>
<polyline clip-path="url(#clip00)" style="stroke:#000000; stroke-width:1; stroke-opacity:1; fill:none" points="
  65.9701,78.051 200.4,78.051 200.4,32.691 65.9701,32.691 65.9701,78.051 
  "/>
<circle clip-path="url(#clip00)" style="fill:#000000; stroke:none; fill-opacity:1" cx="92.9701" cy="47.811" r="6"/>
<circle clip-path="url(#clip00)" style="fill:#009af9; stroke:none; fill-opacity:1" cx="92.9701" cy="47.811" r="5"/>
<g clip-path="url(#clip00)">
<text style="fill:#000000; fill-opacity:1; font-family:Arial,Helvetica Neue,Helvetica,sans-serif; font-size:12; text-anchor:start;" transform="rotate(0, 113.97, 52.311)" x="113.97" y="52.311">analytical</text>
</g>
<circle clip-path="url(#clip00)" style="fill:#000000; stroke:none; fill-opacity:1" cx="92.9701" cy="62.931" r="6"/>
<circle clip-path="url(#clip00)" style="fill:#e26f46; stroke:none; fill-opacity:1" cx="92.9701" cy="62.931" r="5"/>
<g clip-path="url(#clip00)">
<text style="fill:#000000; fill-opacity:1; font-family:Arial,Helvetica Neue,Helvetica,sans-serif; font-size:12; text-anchor:start;" transform="rotate(0, 113.97, 67.431)" x="113.97" y="67.431">approximation</text>
</g>
</svg>
