<?xml version="1.0" encoding="utf-8"?>
<svg xmlns="http://www.w3.org/2000/svg" xmlns:xlink="http://www.w3.org/1999/xlink" width="576" height="384" viewBox="0 0 576 384">
<defs>
  <clipPath id="clip00">
    <rect x="0" y="0" width="576" height="384"/>
  </clipPath>
</defs>
<polygon clip-path="url(#clip00)" points="
0,384 576,384 576,0 0,0 
  " fill="#ffffff" fill-opacity="1"/>
<defs>
  <clipPath id="clip01">
    <rect x="115" y="0" width="404" height="384"/>
  </clipPath>
</defs>
<polygon clip-path="url(#clip00)" points="
108.104,353.674 572.063,353.674 572.063,3.93701 108.104,3.93701 
  " fill="#ffffff" fill-opacity="1"/>
<defs>
  <clipPath id="clip02">
    <rect x="108" y="3" width="464" height="350"/>
  </clipPath>
</defs>
<polyline clip-path="url(#clip02)" style="stroke:#00002d; stroke-width:0.768; stroke-opacity:0.5; fill:none" stroke-dasharray="1, 2" points="
  157.793,348.428 157.793,9.18306 
  "/>
<polyline clip-path="url(#clip02)" style="stroke:#00002d; stroke-width:0.768; stroke-opacity:0.5; fill:none" stroke-dasharray="1, 2" points="
  340.251,348.428 340.251,9.18306 
  "/>
<polyline clip-path="url(#clip02)" style="stroke:#00002d; stroke-width:0.768; stroke-opacity:0.5; fill:none" stroke-dasharray="1, 2" points="
  522.709,348.428 522.709,9.18306 
  "/>
<polyline clip-path="url(#clip02)" style="stroke:#00002d; stroke-width:0.768; stroke-opacity:0.5; fill:none" stroke-dasharray="1, 2" points="
  115.063,293.247 565.104,293.247 
  "/>
<polyline clip-path="url(#clip02)" style="stroke:#00002d; stroke-width:0.768; stroke-opacity:0.5; fill:none" stroke-dasharray="1, 2" points="
  115.063,230.966 565.104,230.966 
  "/>
<polyline clip-path="url(#clip02)" style="stroke:#00002d; stroke-width:0.768; stroke-opacity:0.5; fill:none" stroke-dasharray="1, 2" points="
  115.063,168.686 565.104,168.686 
  "/>
<polyline clip-path="url(#clip02)" style="stroke:#00002d; stroke-width:0.768; stroke-opacity:0.5; fill:none" stroke-dasharray="1, 2" points="
  115.063,106.406 565.104,106.406 
  "/>
<polyline clip-path="url(#clip02)" style="stroke:#00002d; stroke-width:0.768; stroke-opacity:0.5; fill:none" stroke-dasharray="1, 2" points="
  115.063,44.1251 565.104,44.1251 
  "/>
<polyline clip-path="url(#clip02)" style="stroke:#00002d; stroke-width:0.768; stroke-opacity:1; fill:none" points="
  108.104,353.674 572.063,353.674 
  "/>
<polyline clip-path="url(#clip02)" style="stroke:#00002d; stroke-width:0.768; stroke-opacity:1; fill:none" points="
  157.793,353.674 157.793,348.428 
  "/>
<polyline clip-path="url(#clip02)" style="stroke:#00002d; stroke-width:0.768; stroke-opacity:1; fill:none" points="
  340.251,353.674 340.251,348.428 
  "/>
<polyline clip-path="url(#clip02)" style="stroke:#00002d; stroke-width:0.768; stroke-opacity:1; fill:none" points="
  522.709,353.674 522.709,348.428 
  "/>
<polyline clip-path="url(#clip02)" style="stroke:#00002d; stroke-width:0.768; stroke-opacity:1; fill:none" points="
  108.104,353.674 108.104,3.93701 
  "/>
<polyline clip-path="url(#clip02)" style="stroke:#00002d; stroke-width:0.768; stroke-opacity:1; fill:none" points="
  108.104,293.247 115.063,293.247 
  "/>
<polyline clip-path="url(#clip02)" style="stroke:#00002d; stroke-width:0.768; stroke-opacity:1; fill:none" points="
  108.104,230.966 115.063,230.966 
  "/>
<polyline clip-path="url(#clip02)" style="stroke:#00002d; stroke-width:0.768; stroke-opacity:1; fill:none" points="
  108.104,168.686 115.063,168.686 
  "/>
<polyline clip-path="url(#clip02)" style="stroke:#00002d; stroke-width:0.768; stroke-opacity:1; fill:none" points="
  108.104,106.406 115.063,106.406 
  "/>
<polyline clip-path="url(#clip02)" style="stroke:#00002d; stroke-width:0.768; stroke-opacity:1; fill:none" points="
  108.104,44.1251 115.063,44.1251 
  "/>
<g clip-path="url(#clip00)">
<text style="fill:#00002d; fill-opacity:1; font-family:Arial,Helvetica Neue,Helvetica,sans-serif; font-size:12; text-anchor:middle;" transform="rotate(0, 157.793, 365.626)" x="157.793" y="365.626">5</text>
</g>
<g clip-path="url(#clip00)">
<text style="fill:#00002d; fill-opacity:1; font-family:Arial,Helvetica Neue,Helvetica,sans-serif; font-size:12; text-anchor:middle;" transform="rotate(0, 340.251, 365.626)" x="340.251" y="365.626">10</text>
</g>
<g clip-path="url(#clip00)">
<text style="fill:#00002d; fill-opacity:1; font-family:Arial,Helvetica Neue,Helvetica,sans-serif; font-size:12; text-anchor:middle;" transform="rotate(0, 522.709, 365.626)" x="522.709" y="365.626">15</text>
</g>
<g clip-path="url(#clip00)">
<text style="fill:#00002d; fill-opacity:1; font-family:Arial,Helvetica Neue,Helvetica,sans-serif; font-size:12; text-anchor:end;" transform="rotate(0, 106.952, 297.747)" x="106.952" y="297.747">-0.0000004</text>
</g>
<g clip-path="url(#clip00)">
<text style="fill:#00002d; fill-opacity:1; font-family:Arial,Helvetica Neue,Helvetica,sans-serif; font-size:12; text-anchor:end;" transform="rotate(0, 106.952, 235.466)" x="106.952" y="235.466">-0.0000002</text>
</g>
<g clip-path="url(#clip00)">
<text style="fill:#00002d; fill-opacity:1; font-family:Arial,Helvetica Neue,Helvetica,sans-serif; font-size:12; text-anchor:end;" transform="rotate(0, 106.952, 173.186)" x="106.952" y="173.186">0.0000000</text>
</g>
<g clip-path="url(#clip00)">
<text style="fill:#00002d; fill-opacity:1; font-family:Arial,Helvetica Neue,Helvetica,sans-serif; font-size:12; text-anchor:end;" transform="rotate(0, 106.952, 110.906)" x="106.952" y="110.906">0.0000002</text>
</g>
<g clip-path="url(#clip00)">
<text style="fill:#00002d; fill-opacity:1; font-family:Arial,Helvetica Neue,Helvetica,sans-serif; font-size:12; text-anchor:end;" transform="rotate(0, 106.952, 48.6251)" x="106.952" y="48.6251">0.0000004</text>
</g>
<g clip-path="url(#clip00)">
<text style="fill:#00002d; fill-opacity:1; font-family:Arial,Helvetica Neue,Helvetica,sans-serif; font-size:16; text-anchor:middle;" transform="rotate(0, 340.083, 381.6)" x="340.083" y="381.6">k</text>
</g>
<g clip-path="url(#clip00)">
<text style="fill:#00002d; fill-opacity:1; font-family:Arial,Helvetica Neue,Helvetica,sans-serif; font-size:16; text-anchor:middle;" transform="rotate(-90, 14.4, 178.806)" x="14.4" y="178.806">Euler residual</text>
</g>
<polyline clip-path="url(#clip02)" style="stroke:#0099ff; stroke-width:0.768; stroke-opacity:1; fill:none" points="
  121.235,343.776 125.656,96.6804 130.077,13.8352 134.498,23.0799 138.919,76.3394 143.341,142.986 147.762,204.817 152.183,252.274 156.604,281.627 161.025,292.9 
  165.446,288.357 169.868,271.425 174.289,245.952 178.71,215.708 183.131,184.07 187.552,153.85 191.974,127.214 196.395,105.677 200.816,90.1394 205.237,80.9573 
  209.658,78.0244 214.08,80.8662 218.501,88.7323 222.922,100.684 227.343,115.675 231.764,132.621 236.185,150.462 240.607,168.209 245.028,184.978 249.449,200.026 
  253.87,212.759 258.291,222.744 262.713,229.712 267.134,233.548 271.555,234.284 275.976,232.079 280.397,227.207 284.819,220.03 289.24,210.98 293.661,200.538 
  298.082,189.206 302.503,177.495 306.924,165.898 311.346,154.879 315.767,144.852 320.188,136.174 324.609,129.133 329.03,123.942 333.452,120.734 337.873,119.561 
  342.294,120.397 346.715,123.142 351.136,127.624 355.557,133.615 359.979,140.833 364.4,148.959 368.821,157.646 373.242,166.533 377.663,175.259 382.085,183.474 
  386.506,190.854 390.927,197.112 395.348,202.006 399.769,205.351 404.191,207.026 408.612,206.978 413.033,205.224 417.454,201.855 421.875,197.03 426.296,190.974 
  430.718,183.969 435.139,176.346 439.56,168.47 443.981,160.728 448.402,153.515 452.824,147.209 457.245,142.16 461.666,138.667 466.087,136.96 470.508,137.182 
  474.93,139.375 479.351,143.462 483.772,149.246 488.193,156.398 492.614,164.466 497.035,172.884 501.457,180.991 505.878,188.066 510.299,193.371 514.72,196.213 
  519.141,196.023 523.563,192.452 527.984,185.492 532.405,175.622 536.826,163.979 541.247,152.565 545.669,144.477 550.09,144.188 554.511,157.858 558.932,193.689 
  
  "/>
<circle clip-path="url(#clip02)" style="fill:#00002d; stroke:none; fill-opacity:1" cx="123.929" cy="168.686" r="3"/>
<circle clip-path="url(#clip02)" style="fill:#e9746a; stroke:none; fill-opacity:1" cx="123.929" cy="168.686" r="2"/>
<circle clip-path="url(#clip02)" style="fill:#00002d; stroke:none; fill-opacity:1" cx="145.088" cy="168.686" r="3"/>
<circle clip-path="url(#clip02)" style="fill:#e9746a; stroke:none; fill-opacity:1" cx="145.088" cy="168.686" r="2"/>
<circle clip-path="url(#clip02)" style="fill:#00002d; stroke:none; fill-opacity:1" cx="185.334" cy="168.686" r="3"/>
<circle clip-path="url(#clip02)" style="fill:#e9746a; stroke:none; fill-opacity:1" cx="185.334" cy="168.686" r="2"/>
<circle clip-path="url(#clip02)" style="fill:#00002d; stroke:none; fill-opacity:1" cx="240.728" cy="168.686" r="3"/>
<circle clip-path="url(#clip02)" style="fill:#e9746a; stroke:none; fill-opacity:1" cx="240.728" cy="168.686" r="2"/>
<circle clip-path="url(#clip02)" style="fill:#00002d; stroke:none; fill-opacity:1" cx="305.848" cy="168.686" r="3"/>
<circle clip-path="url(#clip02)" style="fill:#e9746a; stroke:none; fill-opacity:1" cx="305.848" cy="168.686" r="2"/>
<circle clip-path="url(#clip02)" style="fill:#00002d; stroke:none; fill-opacity:1" cx="374.319" cy="168.686" r="3"/>
<circle clip-path="url(#clip02)" style="fill:#e9746a; stroke:none; fill-opacity:1" cx="374.319" cy="168.686" r="2"/>
<circle clip-path="url(#clip02)" style="fill:#00002d; stroke:none; fill-opacity:1" cx="439.439" cy="168.686" r="3"/>
<circle clip-path="url(#clip02)" style="fill:#e9746a; stroke:none; fill-opacity:1" cx="439.439" cy="168.686" r="2"/>
<circle clip-path="url(#clip02)" style="fill:#00002d; stroke:none; fill-opacity:1" cx="494.833" cy="168.686" r="3"/>
<circle clip-path="url(#clip02)" style="fill:#e9746a; stroke:none; fill-opacity:1" cx="494.833" cy="168.686" r="2"/>
<circle clip-path="url(#clip02)" style="fill:#00002d; stroke:none; fill-opacity:1" cx="535.079" cy="168.686" r="3"/>
<circle clip-path="url(#clip02)" style="fill:#e9746a; stroke:none; fill-opacity:1" cx="535.079" cy="168.686" r="2"/>
<circle clip-path="url(#clip02)" style="fill:#00002d; stroke:none; fill-opacity:1" cx="556.238" cy="168.686" r="3"/>
<circle clip-path="url(#clip02)" style="fill:#e9746a; stroke:none; fill-opacity:1" cx="556.238" cy="168.686" r="2"/>
</svg>
